<?xml version="1.0" encoding="UTF-8" standalone="no"?>
<svg width="56px" height="56px" viewBox="0 0 56 56" version="1.1" xmlns="http://www.w3.org/2000/svg" xmlns:xlink="http://www.w3.org/1999/xlink" xmlns:sketch="http://www.bohemiancoding.com/sketch/ns">
    <!-- Generator: Sketch 3.3.2 (12043) - http://www.bohemiancoding.com/sketch -->
    <title>dz-error-mark</title>
    <desc>Created with Sketch.</desc>
    <defs>
        <path d="M26,52 C40.3594035,52 52,40.3594035 52,26 C52,11.6405965 40.3594035,0 26,0 C11.6405965,0 0,11.6405965 0,26 C0,40.3594035 11.6405965,52 26,52 Z M25.7877084,21.6395422 L18.1680274,14.0198612 C18.1680274,14.0198612 15.060205,12.9795175 14.0198613,14.0198612 C12.9795176,15.0602048 14.0198613,18.1680273 14.0198613,18.1680273 L21.6395423,25.7877083 L14.0198613,33.4073893 C14.0198613,33.4073893 12.9861009,36.5217957 14.0198613,37.5555561 C15.0536217,38.5893165 18.1680274,37.5555554 18.1680274,37.5555554 L25.7877084,29.9358744 L33.4073894,37.5555554 C33.4073894,37.5555554 36.5195794,38.5915319 37.5555552,37.5555561 C38.5915311,36.5195803 37.5555556,33.4073893 37.5555556,33.4073893 L29.9358745,25.7877083 L37.5555556,18.1680273 C37.5555556,18.1680273 38.5936615,15.0579671 37.5555556,14.0198612 C36.5174496,12.9817552 33.4073894,14.0198612 33.4073894,14.0198612 L25.7877084,21.6395422 Z" id="path-1"></path>
    </defs>
    <g id="Page-1" stroke="none" stroke-width="1" fill="none" fill-rule="evenodd" sketch:type="MSPage">
        <g id="Shape-+-Path" sketch:type="MSLayerGroup" transform="translate(2.000000, 2.000000)" opacity="0.5">
            <g id="Path">
                <use stroke="#79000E" fill-opacity="0.8" fill="#D65263" fill-rule="evenodd" sketch:type="MSShapeGroup" xlink:href="#path-1"></use>
                <use stroke="#D0011B" fill="none" xlink:href="#path-1"></use>
            </g>
        </g>
    </g>
</svg>